<?xml version="1.0" encoding="UTF-8" standalone="no"?>
<svg xmlns="http://www.w3.org/2000/svg" xmlns:xlink="http://www.w3.org/1999/xlink" xmlns:svg="http://www.w3.org/2000/svg" version="1.1" baseProfile="full" width="6000" height="1000" viewBox="0 0 6000 1000" preserveAspectRatio="xMidYMid meet" stroke="black" fill="black">

<!-- šipka vlevo -->
<path stroke-width="160" fill="none" d="M 896,115 118,509 894,919" stroke-linejoin="round" stroke-linecap="round" />

<!-- šipka vpravo -->
<g transform="translate(1000,0)">
<path stroke-width="160" fill="none" d="M 117,115 895,509 119,919" stroke-linejoin="round" stroke-linecap="round" />
</g>

<!-- šipka dolů -->
<g transform="translate(2000,0)">
<path stroke-width="160" fill="none" d="M 105,128 499,906 909,130" stroke-linejoin="round" stroke-linecap="round" />
</g>


<!-- potvrzení -->
<g transform="translate(3000,0)">
<rect fill="black" width="920" height="75" x="40" y="870" />
<path stroke-width="100" fill="none" d="M 307,597 495,805 678,595" stroke-linejoin="round" stroke-linecap="round" />
<path stroke-width="100" fill="none" d="M 495.50002,805 V 110" stroke-linejoin="round" stroke-linecap="round" />
</g>


<!-- otočení - návrat -->
<g transform="translate(4000,0)" stroke-width="80"  fill="none" stroke-linecap="round" stroke-linejoin="round">
<path d="M 810,782 A 400,400 0 0 1 315,915 400,400 0 0 1 98,450" />
<path d="M -183,-285 A 400,400 0 0 1 -680,-153 400,400 0 0 1 -898,-618" transform="scale(-1)" />
<g fill="black">
<path d="m 182,285 92,-147 67,75 z" />
<path d="m 810,782 -135,68 67,70 67,-137" />
</g></g>

<!-- zásady -->
<g transform="translate(5000,0)" fill="none" stroke-width="50" stroke-linejoin="round" stroke-linecap="round">
<rect width="696" height="846" x="141" y="81" />
<path d="m 209,258 61,-95 45,140 85,-97 c 0,0 29,12 43,28 14,16 76,21 105,14 29,-7 38,-50 111,-21 73,29 116,36 116,36" />
<path d="M 226,550 342,427 448,565 c 0,0 90,-135 124,-121 35,14 121,81 121,81 h 74" />
<path d="m 266,773 c 84,80 147,11 220,5" />
<ellipse cx="666" cy="756" rx="89" ry="82" />
</g>

</svg>